<svg xmlns="http://www.w3.org/2000/svg" width="20" height="20" viewBox="0 0 48 48"><g><path fill="#4285F4" d="M24 9.5c3.54 0 6.73 1.22 9.24 3.23l6.91-6.91C36.68 2.36 30.74 0 24 0 14.82 0 6.71 5.06 2.69 12.44l8.06 6.26C12.6 13.13 17.89 9.5 24 9.5z"/><path fill="#34A853" d="M46.1 24.55c0-1.64-.15-3.22-.42-4.74H24v9.01h12.42c-.54 2.9-2.18 5.36-4.66 7.01l7.19 5.6C43.98 37.13 46.1 31.36 46.1 24.55z"/><path fill="#FBBC05" d="M10.75 28.69c-1.01-2.99-1.01-6.21 0-9.2l-8.06-6.26C.9 17.1 0 20.44 0 24c0 3.56.9 6.9 2.69 10.01l8.06-6.26z"/><path fill="#EA4335" d="M24 48c6.48 0 11.92-2.15 15.89-5.85l-7.19-5.6c-2.01 1.35-4.59 2.15-8.7 2.15-6.11 0-11.4-3.63-13.25-8.69l-8.06 6.26C6.71 42.94 14.82 48 24 48z"/><path fill="none" d="M0 0h48v48H0z"/></g></svg>
